# xmcd
#
# Track frame offsets:
#	150
#	12275
#	24464
#	42026
#	52162
#	64364
#	74578
#	88681
#	114338
#	128654
#	144849
#	159229
#	169703
#	182327
#	195594
#	209224
#	235352
#
# Disc length: 3757 seconds
#
# Revision: 1
# Processed by: cddbd v1.5.2PL0 Copyright (c) Steve Scherf et al.
# Submitted via: EasyCDDAExtractor 12.0.1.1
#
DISCID=eb0eab11
DTITLE=Dancelife - Latin Originals 3
DYEAR=2006
DGENRE=Dance
TTITLE0=SB 49 - Canto da Cor
TTITLE1=SB 49 - Ay Cosita linda
TTITLE2=SB 50 - Samba Reggae
TTITLE3=SB 49 - Cerca De Bakel
TTITLE4=SB 51 - Ile Aiye
TTITLE5=SB 49 - Zing A Zing A Zing Boom
TTITLE6=SB 50 - Deusa Do Ebano
TTITLE7=SB 50 - Samba Para Dos
TTITLE8=CC 31 - Munecas Del Chachacha
TTITLE9=CC 31 - Oye Como Va
TTITLE10=CC 32 - Tumbao
TTITLE11=CC 30 - Wabble Cha
TTITLE12=CC 32 - El Congo
TTITLE13=CC 30 - Borinquen
TTITLE14=CC 31 - No Te Demores
TTITLE15=CC 32 - Yo Soy El Son Cubano
TTITLE16=MP3
EXTD=YEAR: 2006
EXTT0=
EXTT1=
EXTT2=
EXTT3=
EXTT4=
EXTT5=
EXTT6=
EXTT7=
EXTT8=
EXTT9=
EXTT10=
EXTT11=
EXTT12=
EXTT13=
EXTT14=
EXTT15=
EXTT16=
PLAYORDER=
